<?xml version="1.0" encoding="iso-8859-1"?>
<!-- Generator: Adobe Illustrator 19.0.0, SVG Export Plug-In . SVG Version: 6.00 Build 0)  -->
<svg version="1.1" id="Layer_1" xmlns="http://www.w3.org/2000/svg" xmlns:xlink="http://www.w3.org/1999/xlink" x="0px" y="0px"
	 viewBox="0 0 496.8 496.8" style="enable-background:new 0 0 496.8 496.8;" xml:space="preserve">
<path style="fill:#47564F;" d="M448.8,172.4c0,8.8-7.2,16-16,16h-21.6c-8.8,0-16-7.2-16-16v-21.6c0-8.8,7.2-16,16-16h21.6
	c8.8,0,16,7.2,16,16V172.4z"/>
<g>
	<path style="fill:#2D3A34;" d="M439.2,172.4c0,8.8-7.2,16-16,16h-21.6c-8.8,0-16-7.2-16-16v-21.6c0-8.8,7.2-16,16-16h21.6
		c8.8,0,16,7.2,16,16V172.4z"/>
	<path style="fill:#2D3A34;" d="M305.6,109.2c0,8.8-7.2,16-16,16H175.2c-8.8,0-16-7.2-16-16v-1.6c0-8.8,7.2-16,16-16h114.4
		c8.8,0,16,7.2,16,16V109.2z"/>
</g>
<g>
	<path style="fill:#586861;" d="M418.4,162.8c0,8.8-7.2,16-16,16H276.8c-8.8,0-16-7.2-16-16v-4c0-8.8,7.2-16,16-16h125.6
		c8.8,0,16,7.2,16,16V162.8z"/>
	<path style="fill:#586861;" d="M370.4,195.6c0,8.8-7.2,16-16,16H141.6c-8.8,0-16-7.2-16-16l8-72c0-8.8,7.2-16,16-16h197.6
		c8.8,0,16,7.2,16,16L370.4,195.6z"/>
	<path style="fill:#586861;" d="M329.6,233.2c0,8.8-7.2,16-16,16H182.4c-8.8,0-16-7.2-16-16v-33.6c0-8.8,7.2-16,16-16h131.2
		c8.8,0,16,7.2,16,16L329.6,233.2L329.6,233.2z"/>
	<path style="fill:#586861;" d="M427.2,306c0,35.2-28.8,64-64,64H132.8c-35.2,0-64-28.8-64-64v-16c0-35.2,28.8-64,64-64H364
		c35.2,0,64,28.8,64,64v16H427.2z"/>
</g>
<g>
	<path style="fill:#47564F;" d="M93.6,320.4c0,8.8-7.2,16-16,16h-32c-8.8,0-16-7.2-16-16v-32c0-8.8,7.2-16,16-16h32
		c8.8,0,16,7.2,16,16V320.4z"/>
	<path style="fill:#47564F;" d="M427.2,314c0,35.2-28.8,64-64,64H132.8c-35.2,0-64-28.8-64-64v-16c0-35.2,28.8-64,64-64H364
		c35.2,0,64,28.8,64,64v16H427.2z"/>
</g>
<path style="fill:#2D3A34;" d="M350.4,314v-16c0-35.2-28.8-64-64-64H132.8c-35.2,0-64,28.8-64,64v16c0,35.2,28.8,64,64,64h154.4
	C321.6,378,350.4,349.2,350.4,314z"/>
<path style="fill:#586861;" d="M488,355.6c0,22.4-18.4,41.6-41.6,41.6H49.6C27.2,397.2,8,378.8,8,355.6l0,0
	C8,333.2,26.4,314,49.6,314h397.6C469.6,314.8,488,333.2,488,355.6L488,355.6z"/>
<path style="fill:#47564F;" d="M8,355.6L8,355.6C8,333.2,26.4,314,49.6,314h397.6c22.4,0,41.6,18.4,41.6,41.6l0,0"/>
<path style="fill:#819B82;" d="M446.4,405.2H49.6C22.4,405.2,0,382.8,0,355.6S22.4,306,49.6,306h397.6c27.2,0,49.6,22.4,49.6,49.6
	C496,382.8,473.6,405.2,446.4,405.2z M49.6,322.8C31.2,322.8,16,338,16,356.4S31.2,390,49.6,390h397.6c18.4,0,33.6-15.2,33.6-33.6
	s-15.2-33.6-33.6-33.6H49.6z"/>
<path style="fill:#47564F;" d="M83.2,355.6c0,6.4-5.6,16-12,16s-12-9.6-12-16s5.6-12,12-12S83.2,348.4,83.2,355.6z"/>
<circle style="fill:#819B82;" cx="71.2" cy="355.6" r="12"/>
<path style="fill:#6E876E;" d="M80,346.8c4.8,4.8,4.8,12,0,16.8s-12,4.8-16.8,0"/>
<path style="fill:#47564F;" d="M133.6,355.6c0,6.4-5.6,16-12,16c-6.4,0-12-9.6-12-16s5.6-12,12-12
	C128.8,343.6,133.6,348.4,133.6,355.6z"/>
<circle style="fill:#819B82;" cx="121.6" cy="355.6" r="12"/>
<path style="fill:#6E876E;" d="M130.4,346.8c4.8,4.8,4.8,12,0,16.8s-12,4.8-16.8,0"/>
<path style="fill:#47564F;" d="M184,355.6c0,6.4-5.6,16-12,16s-12-9.6-12-16s5.6-12,12-12C179.2,343.6,184,348.4,184,355.6z"/>
<circle style="fill:#819B82;" cx="172" cy="355.6" r="12"/>
<path style="fill:#6E876E;" d="M180.8,346.8c4.8,4.8,4.8,12,0,16.8s-12,4.8-16.8,0"/>
<path style="fill:#47564F;" d="M234.4,355.6c0,6.4-5.6,16-12,16s-12-9.6-12-16s5.6-12,12-12S234.4,348.4,234.4,355.6z"/>
<circle style="fill:#819B82;" cx="222.4" cy="355.6" r="12"/>
<path style="fill:#6E876E;" d="M231.2,346.8c4.8,4.8,4.8,12,0,16.8s-12,4.8-16.8,0"/>
<path style="fill:#47564F;" d="M284.8,355.6c0,6.4-5.6,16-12,16s-12-9.6-12-16s5.6-12,12-12S284.8,348.4,284.8,355.6z"/>
<circle style="fill:#819B82;" cx="273.6" cy="355.6" r="12"/>
<path style="fill:#6E876E;" d="M281.6,346.8c4.8,4.8,4.8,12,0,16.8s-12,4.8-16.8,0"/>
<path style="fill:#47564F;" d="M336,355.6c0,6.4-5.6,16-12,16s-12-9.6-12-16s5.6-12,12-12S336,348.4,336,355.6z"/>
<circle style="fill:#819B82;" cx="324" cy="355.6" r="12"/>
<path style="fill:#6E876E;" d="M332,346.8c4.8,4.8,4.8,12,0,16.8s-12,4.8-16.8,0"/>
<path style="fill:#47564F;" d="M386.4,355.6c0,6.4-5.6,16-12,16s-12-9.6-12-16s5.6-12,12-12S386.4,348.4,386.4,355.6z"/>
<circle style="fill:#819B82;" cx="374.4" cy="355.6" r="12"/>
<path style="fill:#6E876E;" d="M382.4,346.8c4.8,4.8,4.8,12,0,16.8s-12,4.8-16.8,0"/>
<path style="fill:#47564F;" d="M436.8,355.6c0,6.4-5.6,16-12,16s-12-9.6-12-16s5.6-12,12-12C431.2,343.6,436.8,348.4,436.8,355.6z"
	/>
<circle style="fill:#819B82;" cx="424.8" cy="355.6" r="12"/>
<path style="fill:#6E876E;" d="M432.8,346.8c4.8,4.8,4.8,12,0,16.8s-12,4.8-16.8,0"/>
<g>
	<path style="fill:#819B82;" d="M74.4,283.6c0,0.8-0.8,1.6-1.6,1.6H50.4c-0.8,0-1.6-0.8-1.6-1.6l0,0c0-0.8,0.8-1.6,1.6-1.6h22.4
		C73.6,281.2,74.4,282,74.4,283.6L74.4,283.6z"/>
	<path style="fill:#819B82;" d="M74.4,292.4c0,0.8-0.8,1.6-1.6,1.6H50.4c-0.8,0-1.6-0.8-1.6-1.6l0,0c0-0.8,0.8-1.6,1.6-1.6h22.4
		C73.6,290.8,74.4,291.6,74.4,292.4L74.4,292.4z"/>
	<path style="fill:#819B82;" d="M74.4,301.2c0,0.8-0.8,1.6-1.6,1.6H50.4c-0.8,0-1.6-0.8-1.6-1.6l0,0c0-0.8,0.8-1.6,1.6-1.6h22.4
		C73.6,299.6,74.4,300.4,74.4,301.2L74.4,301.2z"/>
</g>
<path style="fill:#47564F;" d="M370.4,203.6c0,8.8-7.2,16-16,16H141.6c-8.8,0-16-7.2-16-16l8-72c0-8.8,7.2-16,16-16h197.6
	c8.8,0,16,7.2,16,16L370.4,203.6z"/>
<path style="fill:#2D3A34;" d="M305.6,203.6l-8-72c0-8.8-7.2-16-16-16h-132c-8.8,0-16,7.2-16,16l-8,72c0,8.8,7.2,16,16,16h148
	C298.4,219.6,305.6,212.4,305.6,203.6z"/>
<g>
</g>
<g>
</g>
<g>
</g>
<g>
</g>
<g>
</g>
<g>
</g>
<g>
</g>
<g>
</g>
<g>
</g>
<g>
</g>
<g>
</g>
<g>
</g>
<g>
</g>
<g>
</g>
<g>
</g>
</svg>
